<svg preserveAspectRatio="none" width="100%" height="100%" overflow="visible" style="display: block;" viewBox="0 0 26 26" fill="none" xmlns="http://www.w3.org/2000/svg">
<g id="03.Tab bar&#229;&#155;&#190;&#230;&#160;&#135;/&#230;&#182;&#136;&#230;&#129;&#175;-&#233;&#128;&#137;&#228;&#184;&#173;">
<g id="&#231;&#159;&#169;&#229;&#189;&#162; 1">
</g>
<g id="&#229;&#135;&#143;&#229;&#142;&#187;&#233;&#161;&#182;&#229;&#177;&#130;">
<mask id="path-1-inside-1_0_3" fill="white">
<path d="M18.5 4C21.2614 4 23.5 6.23857 23.5 9V17C23.5 19.7614 21.2614 22 18.5 22H7.5C4.73859 22 2.5 19.7614 2.5 17V9C2.5 6.23857 4.73859 4 7.5 4H18.5ZM20.0957 8.63281C19.8901 8.29934 19.4665 8.19895 19.1328 8.4043L14.2051 11.4365C14.0204 11.5501 13.8277 11.6356 13.627 11.6924C13.4261 11.7492 13.217 11.7773 13 11.7773C12.783 11.7773 12.5739 11.7492 12.373 11.6924C12.1723 11.6356 11.9796 11.5501 11.7949 11.4365L6.86719 8.4043C6.5335 8.19895 6.10986 8.29935 5.9043 8.63281C5.69886 8.96666 5.79898 9.39123 6.13281 9.59668L11.0605 12.6289C11.2144 12.7236 11.3739 12.8063 11.5381 12.877C11.688 12.9415 11.8424 12.9956 12.001 13.04C12.1601 13.0846 12.3212 13.1187 12.4834 13.1416C12.6538 13.1656 12.8262 13.1777 13 13.1777C13.1737 13.1777 13.3462 13.1656 13.5166 13.1416C13.6788 13.1187 13.8399 13.0846 13.999 13.04C14.1576 12.9956 14.312 12.9415 14.4619 12.877C14.6261 12.8063 14.7856 12.7236 14.9395 12.6289L19.8672 9.59668C20.201 9.39123 20.3011 8.96666 20.0957 8.63281Z"/>
</mask>
<path d="M18.5 4C21.2614 4 23.5 6.23857 23.5 9V17C23.5 19.7614 21.2614 22 18.5 22H7.5C4.73859 22 2.5 19.7614 2.5 17V9C2.5 6.23857 4.73859 4 7.5 4H18.5ZM20.0957 8.63281C19.8901 8.29934 19.4665 8.19895 19.1328 8.4043L14.2051 11.4365C14.0204 11.5501 13.8277 11.6356 13.627 11.6924C13.4261 11.7492 13.217 11.7773 13 11.7773C12.783 11.7773 12.5739 11.7492 12.373 11.6924C12.1723 11.6356 11.9796 11.5501 11.7949 11.4365L6.86719 8.4043C6.5335 8.19895 6.10986 8.29935 5.9043 8.63281C5.69886 8.96666 5.79898 9.39123 6.13281 9.59668L11.0605 12.6289C11.2144 12.7236 11.3739 12.8063 11.5381 12.877C11.688 12.9415 11.8424 12.9956 12.001 13.04C12.1601 13.0846 12.3212 13.1187 12.4834 13.1416C12.6538 13.1656 12.8262 13.1777 13 13.1777C13.1737 13.1777 13.3462 13.1656 13.5166 13.1416C13.6788 13.1187 13.8399 13.0846 13.999 13.04C14.1576 12.9956 14.312 12.9415 14.4619 12.877C14.6261 12.8063 14.7856 12.7236 14.9395 12.6289L19.8672 9.59668C20.201 9.39123 20.3011 8.96666 20.0957 8.63281Z" fill="var(--fill-0, #FF4D88)"/>
<path d="M23.5 9H24.9V9L23.5 9ZM23.5 17L24.9 17V17H23.5ZM2.5 17H1.1V17L2.5 17ZM2.5 9L1.1 9V9H2.5ZM20.0957 8.63281L21.288 7.89909L21.2875 7.89816L20.0957 8.63281ZM19.1328 8.4043L19.8665 9.59664L19.8665 9.59662L19.1328 8.4043ZM14.2051 11.4365L14.9386 12.629L14.9388 12.6289L14.2051 11.4365ZM13.627 11.6924L14.0082 13.0395L14.0083 13.0395L13.627 11.6924ZM13 11.7773V13.1773H13L13 11.7773ZM12.373 11.6924L12.7544 10.3453L12.7543 10.3453L12.373 11.6924ZM11.7949 11.4365L11.0612 12.6289L11.0614 12.629L11.7949 11.4365ZM6.86719 8.4043L6.13345 9.59662L6.13349 9.59664L6.86719 8.4043ZM5.9043 8.63281L4.71255 7.89815L4.71197 7.89909L5.9043 8.63281ZM6.13281 9.59668L5.39905 10.789L5.39912 10.789L6.13281 9.59668ZM11.0605 12.6289L11.7943 11.4366L11.7942 11.4366L11.0605 12.6289ZM11.5381 12.877L10.9848 14.163L10.9848 14.163L11.5381 12.877ZM12.001 13.04L11.6231 14.3881L11.6232 14.3881L12.001 13.04ZM12.4834 13.1416L12.2881 14.5279L12.2882 14.5279L12.4834 13.1416ZM13 13.1777V14.5777H13L13 13.1777ZM13.5166 13.1416L13.7118 14.5279L13.7119 14.5279L13.5166 13.1416ZM13.999 13.04L14.3768 14.3881L14.377 14.3881L13.999 13.04ZM14.4619 12.877L15.0152 14.163L15.0152 14.163L14.4619 12.877ZM14.9395 12.6289L14.2058 11.4366L14.2057 11.4366L14.9395 12.6289ZM19.8672 9.59668L20.6009 10.789L20.601 10.789L19.8672 9.59668ZM18.5 4V5.4C20.4882 5.4 22.1 7.01177 22.1 9L23.5 9L24.9 9C24.9 5.46537 22.0346 2.6 18.5 2.6V4ZM23.5 9H22.1V17H23.5H24.9V9H23.5ZM23.5 17L22.1 17C22.1 18.9882 20.4882 20.6 18.5 20.6V22V23.4C22.0346 23.4 24.9 20.5346 24.9 17L23.5 17ZM18.5 22V20.6H7.5V22V23.4H18.5V22ZM7.5 22V20.6C5.51178 20.6 3.9 18.9882 3.9 17L2.5 17L1.1 17C1.1 20.5346 3.96539 23.4 7.5 23.4V22ZM2.5 17H3.9V9H2.5H1.1V17H2.5ZM2.5 9L3.9 9C3.9 7.01177 5.51178 5.4 7.5 5.4V4V2.6C3.96539 2.6 1.1 5.46537 1.1 9L2.5 9ZM7.5 4V5.4H18.5V4V2.6H7.5V4ZM20.0957 8.63281L21.2875 7.89816C20.6758 6.90585 19.3899 6.60224 18.3991 7.21197L19.1328 8.4043L19.8665 9.59662C19.5431 9.79566 19.1045 9.69283 18.9039 9.36747L20.0957 8.63281ZM19.1328 8.4043L18.3991 7.21195L13.4714 10.2442L14.2051 11.4365L14.9388 12.6289L19.8665 9.59664L19.1328 8.4043ZM14.2051 11.4365L13.4716 10.2441C13.3915 10.2933 13.3168 10.3252 13.2456 10.3453L13.627 11.6924L14.0083 13.0395C14.3386 12.9459 14.6493 12.8069 14.9386 12.629L14.2051 11.4365ZM13.627 11.6924L13.2457 10.3453C13.1751 10.3653 13.0947 10.3773 13 10.3773L13 11.7773L13 13.1773C13.3392 13.1773 13.677 13.1332 14.0082 13.0395L13.627 11.6924ZM13 11.7773V10.3773C12.9052 10.3773 12.8249 10.3653 12.7544 10.3453L12.373 11.6924L11.9917 13.0395C12.323 13.1332 12.6608 13.1773 13 13.1773V11.7773ZM12.373 11.6924L12.7543 10.3453C12.6832 10.3252 12.6085 10.2933 12.5285 10.2441L11.7949 11.4365L11.0614 12.629C11.3507 12.8069 11.6614 12.9459 11.9918 13.0395L12.373 11.6924ZM11.7949 11.4365L12.5286 10.2442L7.60088 7.21195L6.86719 8.4043L6.13349 9.59664L11.0612 12.6289L11.7949 11.4365ZM6.86719 8.4043L7.60092 7.21197C6.61009 6.60223 5.32424 6.90587 4.71255 7.89815L5.9043 8.63281L7.09605 9.36748C6.89548 9.69282 6.45691 9.79567 6.13345 9.59662L6.86719 8.4043ZM5.9043 8.63281L4.71197 7.89909C4.10314 8.88846 4.40377 10.1765 5.39905 10.789L6.13281 9.59668L6.86658 8.40438C7.19418 8.60599 7.29457 9.04486 7.09663 9.36653L5.9043 8.63281ZM6.13281 9.59668L5.39912 10.789L10.3268 13.8213L11.0605 12.6289L11.7942 11.4366L6.86651 8.40433L6.13281 9.59668ZM11.0605 12.6289L10.3268 13.8212C10.5386 13.9515 10.7584 14.0656 10.9848 14.163L11.5381 12.877L12.0914 11.5909C11.9894 11.5471 11.8902 11.4956 11.7943 11.4366L11.0605 12.6289ZM11.5381 12.877L10.9848 14.163C11.1942 14.2531 11.4073 14.3276 11.6231 14.3881L12.001 13.04L12.3789 11.692C12.2775 11.6636 12.1818 11.6298 12.0913 11.5909L11.5381 12.877ZM12.001 13.04L11.6232 14.3881C11.8401 14.4489 12.0621 14.4961 12.2881 14.5279L12.4834 13.1416L12.6787 11.7553C12.5803 11.7414 12.4802 11.7204 12.3788 11.692L12.001 13.04ZM12.4834 13.1416L12.2882 14.5279C12.5232 14.561 12.7609 14.5777 13 14.5777V13.1777V11.7777C12.8916 11.7777 12.7843 11.7702 12.6786 11.7553L12.4834 13.1416ZM13 13.1777L13 14.5777C13.2391 14.5777 13.4768 14.561 13.7118 14.5279L13.5166 13.1416L13.3214 11.7553C13.2157 11.7702 13.1084 11.7777 13 11.7777L13 13.1777ZM13.5166 13.1416L13.7119 14.5279C13.9379 14.4961 14.1599 14.4489 14.3768 14.3881L13.999 13.04L13.6212 11.692C13.5198 11.7204 13.4197 11.7414 13.3213 11.7553L13.5166 13.1416ZM13.999 13.04L14.377 14.3881C14.5927 14.3276 14.8058 14.2531 15.0152 14.163L14.4619 12.877L13.9087 11.5909C13.8182 11.6298 13.7225 11.6636 13.6211 11.692L13.999 13.04ZM14.4619 12.877L15.0152 14.163C15.2416 14.0656 15.4614 13.9515 15.6732 13.8212L14.9395 12.6289L14.2057 11.4366C14.1098 11.4956 14.0106 11.5471 13.9086 11.5909L14.4619 12.877ZM14.9395 12.6289L15.6732 13.8213L20.6009 10.789L19.8672 9.59668L19.1335 8.40433L14.2058 11.4366L14.9395 12.6289ZM19.8672 9.59668L20.601 10.789C21.5962 10.1765 21.8969 8.88847 21.288 7.89909L20.0957 8.63281L18.9034 9.36653C18.7054 9.04484 18.8058 8.60599 19.1334 8.40439L19.8672 9.59668Z" fill="var(--stroke-0, #FF4D88)" mask="url(#path-1-inside-1_0_3)"/>
</g>
</g>
</svg>
