<svg preserveAspectRatio="none" width="100%" height="100%" overflow="visible" style="display: block;" viewBox="0 0 21 21" fill="none" xmlns="http://www.w3.org/2000/svg">
<g id="03.Tab bar&#229;&#155;&#190;&#230;&#160;&#135;/&#231;&#187;&#143;&#230;&#156;&#159;&#230;&#136;&#145;&#231;&#154;&#132;-&#233;&#128;&#137;&#228;&#184;&#173;">
<path id="&#229;&#189;&#162;&#231;&#138;&#182;&#229;&#164;&#135;&#228;&#187;&#189; 2" fill-rule="evenodd" clip-rule="evenodd" d="M20.0454 9.54545H20.054L20.1495 11.828C20.1645 12.8638 20.4199 14.3271 20.9157 16.2181C21.2267 17.1353 20.6441 18.1261 19.708 18.4805C17.9729 19.1375 16.1121 19.5876 14.1257 19.8309C13.1058 20.5666 11.8535 21 10.5 21C9.14802 21 7.89705 20.5676 6.87781 19.8335C4.93332 19.5968 3.10924 19.1621 1.40566 18.5294L1.29402 18.4875C0.363468 18.1361 -0.218946 17.1564 0.077973 16.2451L0.127029 16.064C0.609672 14.2658 0.850983 12.8539 0.850983 11.828L0.965874 9.54545H0.954555C0.954555 4.27365 5.22818 0 10.5 0C15.7718 0 20.0454 4.27365 20.0454 9.54545V9.54545ZM10.4732 9.90239C9.1655 11.3034 7.33218 12.1744 5.3025 12.1744L5.25 12.1739V14.1326C5.25 17.1368 7.60051 19.5721 10.5 19.5721C13.3995 19.5721 15.75 17.1368 15.75 14.1326V12.1744C13.6999 12.1744 11.8361 11.2857 10.5124 9.85986L10.4732 9.90239V9.90239Z" fill="var(--fill-0, #FF4D88)"/>
</g>
</svg>
