<svg preserveAspectRatio="none" width="100%" height="100%" overflow="visible" style="display: block;" viewBox="0 0 22.0107 20.999" fill="none" xmlns="http://www.w3.org/2000/svg">
<g id="03.Tab bar&#229;&#155;&#190;&#230;&#160;&#135;/&#233;&#166;&#150;&#233;&#161;&#181;-&#230;&#156;&#170;&#233;&#128;&#137;&#228;&#184;&#173;">
<path id="&#229;&#189;&#162;&#231;&#138;&#182;" d="M11.0049 0C17.0798 0.00012227 22.0048 3.4773 22.0049 7.7666C22.0049 7.77733 22.004 7.78811 22.0039 7.79883H22.0107V10.1318H21.9961C21.925 16.1458 17.0308 20.999 11 20.999C4.92488 20.999 0 16.0741 0 9.99902H0.467773V9.99805H0.0107422V7.9375C0.00900402 7.88067 0.00488281 7.82373 0.00488281 7.7666C0.00493245 3.47723 4.92979 0 11.0049 0ZM20.417 11.7871C18.4889 14.0324 14.9953 15.5331 11.0049 15.5332C7.02448 15.5332 3.53761 14.0405 1.60645 11.8047C2.45112 16.2297 6.33972 19.5742 11.0107 19.5742C15.6877 19.574 19.5794 16.2206 20.417 11.7871ZM11.0107 1.42383C5.63756 1.42383 1.43483 4.39057 1.43457 7.76562C1.43457 11.1408 5.63739 14.1084 11.0107 14.1084C16.3839 14.1083 20.5859 11.1407 20.5859 7.76562C20.5857 4.39063 16.3838 1.42395 11.0107 1.42383ZM10.793 8.80957C10.9227 8.65618 11.1592 8.65636 11.2891 8.80957L12.9941 10.8281C13.5437 11.4668 13.1148 12.2478 12.0361 12.5732C10.9576 12.8984 9.63755 12.6453 9.08789 12.0068C8.75452 11.6191 8.78157 11.1773 9.0957 10.8184L10.793 8.80957ZM9.06836 8.20898C9.37407 8.19806 9.52413 8.57696 9.29395 8.77832L7.56348 10.291C6.90002 10.88 5.53748 11.0488 4.52051 10.668C3.50391 10.287 3.21693 9.5002 3.87988 8.91113C4.28269 8.55352 4.94365 8.35085 5.62793 8.33203L9.06836 8.20898ZM16.3799 8.33398C17.5923 8.3722 18.5256 8.97152 18.4648 9.67188C18.4037 10.3724 17.3709 10.9092 16.1582 10.8711C15.4219 10.8479 14.7882 10.6181 14.418 10.2842L12.6963 8.78027C12.4666 8.57896 12.6166 8.20041 12.9219 8.21094L16.3799 8.33398ZM14.4414 5.23828C15.1048 4.64928 16.4674 4.48063 17.4844 4.86133C18.5013 5.24228 18.7882 6.02901 18.125 6.61816C17.7221 6.97572 17.0612 7.17849 16.377 7.19727L12.9355 7.32031C12.6305 7.33049 12.4811 6.95217 12.7109 6.75098L14.4414 5.23828ZM5.84668 4.65918C6.58292 4.68234 7.21657 4.91233 7.58691 5.24609L9.30859 6.75C9.539 6.95133 9.38878 7.33027 9.08301 7.31934L5.625 7.19629C4.41248 7.158 3.47894 6.55887 3.54004 5.8584C3.60147 5.15805 4.63428 4.62123 5.84668 4.65918ZM10.0352 2.95508C11.1136 2.62994 12.4336 2.88414 12.9834 3.52246C13.317 3.91022 13.2897 4.35094 12.9756 4.70996L11.2783 6.71973C11.1484 6.87317 10.911 6.87335 10.7812 6.71973L9.07715 4.70117C8.52809 4.06259 8.95695 3.28054 10.0352 2.95508Z" fill="var(--fill-0, #666666)"/>
</g>
</svg>
