<svg preserveAspectRatio="none" width="100%" height="100%" overflow="visible" style="display: block;" viewBox="0 0 20 22" fill="none" xmlns="http://www.w3.org/2000/svg">
<g id="03.Tab bar&#229;&#155;&#190;&#230;&#160;&#135;/&#232;&#174;&#176;&#229;&#189;&#149;-&#233;&#128;&#137;&#228;&#184;&#173;">
<path id="&#229;&#189;&#162;&#231;&#138;&#182;" d="M13.9727 0C14.3597 0.000290262 14.6737 0.314077 14.6738 0.701172V2.09473L15.2383 2.1582L15.7812 2.24707L16.2646 2.35645L16.6992 2.48633L17.0938 2.6377L17.4541 2.80957L17.7832 3.00293L18.085 3.21973L18.3604 3.45898L18.6113 3.72266L18.8389 4.01172L19.0449 4.32812L19.2295 4.67383L19.3936 5.05176L19.5371 5.4668L19.6602 5.92383L19.7646 6.43066L19.8496 7.00195L19.915 7.6582L19.9629 8.44531L19.9902 9.47754L20 11.9902L19.9902 14.5225L19.9629 15.5547L19.915 16.3418L19.8496 16.998L19.7646 17.5693L19.6602 18.0762L19.5371 18.5332L19.3936 18.9473L19.2295 19.3262L19.0449 19.6719L18.8389 19.9883L18.6113 20.2773L18.3604 20.541L18.085 20.7803L17.7832 20.9971L17.4541 21.1904L17.0938 21.3623L16.6992 21.5137L16.2646 21.6436L15.7812 21.7529L15.2383 21.8418L14.6133 21.9111L13.8643 21.9609L12.8809 21.9902L10.001 22L7.11914 21.9902L6.13574 21.9609L5.38672 21.9111L4.76172 21.8418L4.21875 21.7529L3.73535 21.6436L3.30078 21.5137L2.90625 21.3623L2.5459 21.1904L2.2168 20.9971L1.91504 20.7803L1.63965 20.541L1.38867 20.2773L1.16113 19.9883L0.955078 19.6719L0.770508 19.3262L0.606445 18.9473L0.462891 18.5332L0.339844 18.0762L0.235352 17.5693L0.150391 16.998L0.0849609 16.3418L0.0371094 15.5547L0.00976562 14.5225L0 11.9941L0.00976562 9.47754L0.0371094 8.44531L0.0849609 7.6582L0.150391 7.00195L0.235352 6.43066L0.339844 5.92383L0.462891 5.4668L0.606445 5.05176L0.770508 4.67383L0.955078 4.32812L1.16113 4.01172L1.38867 3.72266L1.63965 3.45898L1.91504 3.21973L2.2168 3.00293L2.5459 2.80957L2.90625 2.6377L3.30078 2.48633L3.73535 2.35645L4.21875 2.24707L4.76172 2.1582L5.36816 2.09082V0.701172C5.36832 0.313994 5.68216 0.000154731 6.06934 0C6.45649 0.000181315 6.77133 0.31401 6.77148 0.701172V2.01953L7.11914 2.00977L9.99805 2L12.8809 2.00977L13.2715 2.02051V0.701172C13.2716 0.313898 13.5853 0 13.9727 0ZM5.49902 8.11035C5.11252 8.11038 4.79895 8.42407 4.79883 8.81055V16.2998C4.7989 16.6863 5.11249 17 5.49902 17C5.88558 17 6.19915 16.6863 6.19922 16.2998V8.81055C6.19909 8.42406 5.88554 8.11035 5.49902 8.11035ZM12.0137 8.11133C11.0426 8.11138 10.2415 8.52598 9.63281 9.35156C9.02402 10.173 8.71484 11.2587 8.71484 12.5713C8.7149 13.9015 9.01521 14.9816 9.60156 15.7852C10.1924 16.5887 10.9798 17 11.9512 17C12.9091 17 13.697 16.5842 14.2969 15.7627C14.8965 14.9413 15.2011 13.8612 15.2012 12.5488C15.2101 11.263 14.9055 10.1956 14.3057 9.36523C13.7058 8.53493 12.9358 8.11133 12.0137 8.11133ZM12.0176 9.5498C12.4817 9.54989 12.8417 9.74755 13.1855 10.2236C13.5958 10.7919 13.8115 11.5557 13.8047 12.5381C13.8047 13.5664 13.5856 14.3448 13.1807 14.8994C12.8422 15.3629 12.4669 15.5604 11.9551 15.5605C11.4278 15.5605 11.0511 15.3659 10.7217 14.918C10.3338 14.3864 10.1182 13.6067 10.1182 12.5713C10.1182 11.5555 10.3405 10.7761 10.75 10.2236C11.0975 9.75238 11.4868 9.5498 12.0176 9.5498Z" fill="var(--fill-0, #FF4D88)"/>
</g>
</svg>
