<svg preserveAspectRatio="none" width="100%" height="100%" overflow="visible" style="display: block;" viewBox="0 0 22 21" fill="none" xmlns="http://www.w3.org/2000/svg">
<g id="&#230;&#160;&#135;&#231;&#173;&#190;&#230;&#160;&#143;&#229;&#155;&#190;&#230;&#160;&#135;/&#233;&#166;&#150;&#233;&#161;&#181;&#233;&#128;&#137;&#228;&#184;&#173;">
<path id="&#229;&#189;&#162;&#231;&#138;&#182;" d="M11 0C17.0514 0 21.9618 3.44301 22 7.7002V10C22 16.0751 17.0751 21 11 21C4.92488 21 5.15422e-06 16.0751 0 10V7.75C6.2181e-06 3.46978 4.92488 0 11 0ZM11 1.4248C5.71518 1.4248 1.43067 4.24287 1.43066 7.71973C1.43066 11.1966 5.71518 14.0156 11 14.0156C16.2848 14.0156 20.5693 11.1966 20.5693 7.71973C20.5693 4.24287 16.2848 1.42481 11 1.4248ZM10.7529 8.7666C10.8827 8.61294 11.1192 8.61302 11.249 8.7666L12.9541 10.7852C13.5034 11.4238 13.0746 12.2058 11.9961 12.5312C10.9176 12.8565 9.59764 12.6022 9.04785 11.9639C8.71411 11.576 8.74142 11.1355 9.05566 10.7764L10.7529 8.7666ZM16.3857 8.29199C17.5982 8.33032 18.5318 8.92942 18.4707 9.62988C18.409 10.3301 17.3763 10.8671 16.1641 10.8291C15.4279 10.806 14.7942 10.5759 14.4238 10.2422L12.7021 8.7373C12.4718 8.53596 12.622 8.15703 12.9277 8.16797L16.3857 8.29199ZM9.07031 8.16211C9.37588 8.15137 9.52607 8.53014 9.2959 8.73145L7.56543 10.2441C6.90209 10.8333 5.53956 11.0019 4.52246 10.6211C3.50541 10.2402 3.21866 9.45441 3.88184 8.86523C4.28471 8.50743 4.94532 8.3039 5.62988 8.28516L9.07031 8.16211ZM14.4355 5.19727C15.099 4.60843 16.4607 4.43963 17.4775 4.82031C18.4944 5.20132 18.7815 5.98802 18.1182 6.57715C17.7153 6.93484 17.0545 7.13748 16.3701 7.15625L12.9297 7.2793C12.6239 7.29024 12.4737 6.91129 12.7041 6.70996L14.4355 5.19727ZM5.83594 4.6123C6.5724 4.6355 7.20688 4.86527 7.57715 5.19922L9.29785 6.70312C9.52783 6.90445 9.37776 7.28317 9.07227 7.27246L5.61523 7.14941C4.40256 7.1113 3.46842 6.51201 3.5293 5.81152C3.59044 5.11098 4.62327 4.57429 5.83594 4.6123ZM10.0029 2.91016C11.0816 2.58481 12.4015 2.83893 12.9512 3.47754C13.2847 3.86539 13.2577 4.30599 12.9434 4.66504L11.2461 6.6748C11.1163 6.82808 10.8798 6.828 10.75 6.6748L9.04492 4.65625C8.49527 4.01751 8.92419 3.23561 10.0029 2.91016Z" fill="var(--fill-0, #FF4D88)"/>
</g>
</svg>
