<svg preserveAspectRatio="none" width="100%" height="100%" overflow="visible" style="display: block;" viewBox="0 0 22 22" fill="none" xmlns="http://www.w3.org/2000/svg">
<g id="03.Tab bar&#229;&#155;&#190;&#230;&#160;&#135;/&#232;&#191;&#148;&#231;&#142;&#176;-&#230;&#156;&#170;&#233;&#128;&#137;&#228;&#184;&#173;">
<path id="Path" d="M11 0.700195C16.6893 0.700195 21.2998 5.31071 21.2998 11C21.2998 16.6892 16.687 21.2998 11 21.2998C5.31313 21.2998 0.700195 16.6869 0.700195 11C0.700195 5.31303 5.31081 0.700195 11 0.700195Z" stroke="var(--stroke-0, #666666)" stroke-width="1.4"/>
<path id="&#229;&#189;&#162;&#231;&#138;&#182;&#231;&#187;&#147;&#229;&#144;&#136;" fill-rule="evenodd" clip-rule="evenodd" d="M11.0013 9.36053L7.888 6.23344L7.79969 6.15752C7.49099 5.93332 7.06098 5.95136 6.77969 6.20013L6.70101 6.28072C6.46358 6.5631 6.475 6.97431 6.74435 7.24497L9.40272 9.91677L6.78409 9.91703L6.68442 9.92315C6.29143 9.97319 6 10.2853 6 10.6562L6.00611 10.7489C6.05449 11.1134 6.38436 11.3954 6.7841 11.3954L10.2143 11.3942V13.1248L6.78409 13.1251L6.68442 13.1312C6.29143 13.1812 6 13.4934 6 13.8643L6.00611 13.957C6.05449 14.3215 6.38436 14.6035 6.7841 14.6035L10.2152 14.6023L10.2165 16.261L10.223 16.355C10.2762 16.7254 10.6073 17.0001 11.0008 17L11.0991 16.9942C11.4857 16.9485 11.7848 16.6375 11.7847 16.2606L11.7834 14.6023L15.2159 14.6035L15.3156 14.5973C15.7086 14.5473 16 14.2352 16 13.8643L15.9939 13.7715C15.9455 13.4071 15.6156 13.1251 15.2159 13.1251L11.7825 13.1248V11.3942L15.2159 11.3954L15.3156 11.3893C15.7086 11.3392 16 11.0271 16 10.6562L15.9939 10.5635C15.9455 10.199 15.6156 9.91703 15.2159 9.91703L12.5989 9.91677L15.2585 7.24497L15.3332 7.15703C15.5509 6.85232 15.5044 6.44892 15.2232 6.20013C14.9419 5.95136 14.5119 5.93332 14.2093 6.15271L14.1205 6.22824L11.0013 9.36053V9.36053Z" fill="var(--fill-0, #666666)"/>
</g>
</svg>
