<svg preserveAspectRatio="none" width="100%" height="100%" overflow="visible" style="display: block;" viewBox="0 0 21 21" fill="none" xmlns="http://www.w3.org/2000/svg">
<g id="&#230;&#160;&#135;&#231;&#173;&#190;&#230;&#160;&#143;&#229;&#155;&#190;&#230;&#160;&#135;/&#230;&#136;&#145;&#230;&#156;&#170;&#233;&#128;&#137;&#228;&#184;&#173;">
<path id="&#229;&#189;&#162;&#231;&#138;&#182;" fill-rule="evenodd" clip-rule="evenodd" d="M20.0454 9.54545H20.054L20.1495 11.828C20.1645 12.8638 20.4199 14.3271 20.9157 16.2181C21.2267 17.1353 20.6441 18.1261 19.708 18.4805C17.9729 19.1375 16.1121 19.5876 14.1257 19.8309C13.1058 20.5666 11.8535 21 10.5 21C9.14802 21 7.89705 20.5676 6.87781 19.8335C4.93332 19.5968 3.10924 19.1621 1.40566 18.5294L1.29402 18.4875C0.363468 18.1361 -0.218946 17.1564 0.077973 16.2451L0.127029 16.064C0.609672 14.2658 0.850983 12.8539 0.850983 11.828L0.965874 9.54545H0.954555C0.954555 4.27365 5.22818 0 10.5 0C15.7718 0 20.0454 4.27365 20.0454 9.54545V9.54545ZM10.4757 11.0831C9.28683 12.3124 7.62019 13.0767 5.77502 13.0767L5.72729 13.0762V14.7948C5.72729 17.4307 7.86412 19.5676 10.5 19.5676C13.1359 19.5676 15.2727 17.4307 15.2727 14.7948V13.0767C13.409 13.0767 11.7146 12.2969 10.5113 11.0458L10.4757 11.0831V11.0831ZM5.01125 11.6454L5.02812 11.6456L5.02776 11.6454L5.72697 11.6454L5.72703 11.6452L5.77489 11.6454C8.25755 11.6454 10.3264 9.87383 10.7863 7.52587L10.7863 7.6363L10.7878 7.63627C10.7868 7.6205 10.7863 7.60461 10.7863 7.58859C10.7863 7.19319 11.1068 6.87267 11.5022 6.87267C11.8975 6.87267 12.2181 7.19319 12.2181 7.58859C12.2181 7.60461 12.2175 7.6205 12.2165 7.63627H12.2218C12.0844 8.44914 11.797 9.211 11.389 9.89242C12.3371 10.9674 13.7317 11.6454 15.2726 11.6454L15.3204 11.6452L15.3681 11.6445L15.368 11.6454L16.0044 11.6454C16.3923 11.6539 16.7044 11.9712 16.7044 12.3613C16.7044 12.3773 16.7039 12.3932 16.7029 12.4089L16.7044 12.4104V14.7954C16.7044 16.0186 16.3505 17.1592 15.7394 18.1202C16.6085 17.9465 17.4458 17.7268 18.2511 17.4612L18.3271 17.4358C19.1417 17.1696 19.7971 17.1295 19.3003 15.7952L19.2433 15.5561C18.9403 14.2716 18.7597 13.2738 18.7016 12.5626C18.6482 12.0782 18.6191 11.5974 18.6142 11.1203L18.6135 10.9772V9.54541C18.6135 5.06436 14.9809 1.43176 10.4999 1.43176C6.01884 1.43176 2.38625 5.06436 2.38625 9.54541V10.9772C2.373 11.4959 2.33672 12.0353 2.27741 12.5953C2.23479 13.3662 2.0148 14.4328 1.61745 15.7952C1.11876 17.119 1.66389 17.119 2.77822 17.4972C3.57808 17.756 4.40939 17.9698 5.27211 18.1386C4.65383 17.1736 4.29534 16.0264 4.29534 14.7954V12.3613C4.29534 11.9659 4.61587 11.6454 5.01125 11.6454V11.6454Z" fill="var(--fill-0, #666666)"/>
</g>
</svg>
