<svg preserveAspectRatio="none" width="100%" height="100%" overflow="visible" style="display: block;" viewBox="0 0 20 22" fill="none" xmlns="http://www.w3.org/2000/svg">
<g id="&#230;&#160;&#135;&#231;&#173;&#190;&#230;&#160;&#143;&#229;&#155;&#190;&#230;&#160;&#135;/&#232;&#174;&#176;&#229;&#189;&#149;&#230;&#156;&#170;&#233;&#128;&#137;&#228;&#184;&#173;">
<path id="&#229;&#189;&#162;&#231;&#138;&#182;" d="M13.9717 0C14.359 0 14.6737 0.313898 14.6738 0.701172V2.09473L15.2383 2.1582L15.7812 2.24707L16.2646 2.35645L16.6992 2.48633L17.0938 2.6377L17.4541 2.80957L17.7832 3.00293L18.085 3.21973L18.3604 3.45898L18.6113 3.72266L18.8389 4.01172L19.0449 4.32812L19.2295 4.67383L19.3936 5.05273L19.5371 5.4668L19.6602 5.92383L19.7646 6.43066L19.8496 7.00195L19.915 7.6582L19.9629 8.44531L19.9902 9.47754L20 11.9902L19.9902 14.5225L19.9629 15.5547L19.915 16.3418L19.8496 16.998L19.7646 17.5693L19.6602 18.0762L19.5371 18.5332L19.3936 18.9473L19.2295 19.3262L19.0449 19.6719L18.8389 19.9883L18.6113 20.2773L18.3604 20.541L18.085 20.7803L17.7832 20.9971L17.4541 21.1904L17.0938 21.3623L16.6992 21.5137L16.2646 21.6436L15.7812 21.7529L15.2383 21.8418L14.6133 21.9111L13.8643 21.9609L12.8809 21.9902L10.001 22L7.11914 21.9902L6.13574 21.9609L5.38672 21.9111L4.76172 21.8418L4.21875 21.7529L3.73535 21.6436L3.30078 21.5137L2.90625 21.3623L2.5459 21.1904L2.2168 20.9971L1.91504 20.7803L1.63965 20.541L1.38867 20.2773L1.16113 19.9883L0.955078 19.6719L0.770508 19.3262L0.606445 18.9473L0.462891 18.5332L0.339844 18.0762L0.235352 17.5693L0.150391 16.998L0.0849609 16.3418L0.0371094 15.5547L0.00976562 14.5225L0 11.9941L0.00976562 9.47754L0.0371094 8.44531L0.0849609 7.6582L0.150391 7.00195L0.235352 6.43066L0.339844 5.92383L0.462891 5.4668L0.606445 5.05273L0.770508 4.67383L0.955078 4.32812L1.16113 4.01172L1.38867 3.72266L1.63965 3.45898L1.91504 3.21973L2.2168 3.00293L2.5459 2.80957L2.90625 2.6377L3.30078 2.48633L3.73535 2.35645L4.21875 2.24707L4.76172 2.1582L5.36719 2.09082V0.701172C5.36734 0.313994 5.68118 0.000154731 6.06836 0C6.45567 0 6.77035 0.313898 6.77051 0.701172V2.01953L7.11914 2.00977L9.99805 2L12.8809 2.00977L13.2705 2.02051V0.701172C13.2707 0.313994 13.5845 0.000154731 13.9717 0ZM7.14355 3.44824L6.77051 3.45898V4.71484C6.77051 5.10225 6.45576 5.41699 6.06836 5.41699C5.68109 5.41684 5.36719 5.10215 5.36719 4.71484V3.53809L4.94727 3.58496L4.47852 3.66113L4.08301 3.75098L3.74121 3.85352L3.44531 3.96582L3.18945 4.08887L2.96582 4.21973L2.76953 4.36035L2.59375 4.51367L2.43555 4.67969L2.28809 4.86621L2.1543 5.07324L2.02539 5.31348L1.90723 5.58887L1.79883 5.90137L1.7002 6.26562L1.61328 6.68945L1.54004 7.18066L1.47949 7.78027L1.43555 8.51465L1.40918 9.5L1.40039 11.9893L1.40918 14.5L1.43555 15.4854L1.47949 16.2197L1.54004 16.8193L1.61328 17.3105L1.7002 17.7344L1.79883 18.0986L1.90723 18.4111L2.02539 18.6855L2.1543 18.9268L2.28809 19.1328L2.43555 19.3203L2.59375 19.4863L2.76953 19.6387L2.96582 19.7793L3.18848 19.9111L3.44336 20.0322L3.74121 20.1465L4.0791 20.2471L4.4834 20.3389L4.94727 20.415L5.50879 20.4775L6.19629 20.5225L7.14355 20.5518L9.99609 20.5615L12.8564 20.5518L13.8037 20.5225L14.4912 20.4775L15.0527 20.415L15.5166 20.3389L15.9209 20.2471L16.2578 20.1465L16.5566 20.0322L16.8115 19.9111L17.0342 19.7793L17.2305 19.6387L17.4053 19.4863L17.5635 19.3203L17.7109 19.1328L17.8457 18.9268L17.9736 18.6855L18.0928 18.4111L18.2012 18.0986L18.2998 17.7344L18.3867 17.3105L18.46 16.8193L18.5205 16.2197L18.5635 15.4854L18.5908 14.5L18.5996 11.9951L18.5908 9.5L18.5635 8.51465L18.5205 7.78027L18.46 7.18066L18.3867 6.68945L18.2998 6.26562L18.2012 5.90137L18.0928 5.58887L17.9736 5.31348L17.8457 5.07324L17.7109 4.86621L17.5635 4.67969L17.4053 4.51367L17.2305 4.36035L17.0342 4.21973L16.8105 4.08887L16.5547 3.96582L16.2588 3.85352L15.917 3.75098L15.5205 3.66113L15.0527 3.58496L14.6738 3.54199V4.71484C14.6738 5.10225 14.3591 5.41699 13.9717 5.41699C13.5844 5.41684 13.2705 5.10215 13.2705 4.71484V3.46094L12.8564 3.44824L9.99805 3.43848L7.14355 3.44824ZM5.70117 8C6.08848 8 6.40317 8.3139 6.40332 8.70117V15.9648C6.40332 16.3523 6.08858 16.667 5.70117 16.667C5.3139 16.6668 5 16.3522 5 15.9648V8.70117C5.00015 8.314 5.31399 8.00015 5.70117 8ZM12.2354 8C13.1594 8 13.9311 8.41399 14.5322 9.22363C15.1332 10.0332 15.4387 11.0736 15.4297 12.3271C15.4296 13.6067 15.1245 14.6601 14.5234 15.4609C13.9223 16.2619 13.1328 16.667 12.1729 16.667C11.1995 16.667 10.4095 16.2659 9.81738 15.4824C9.22995 14.6989 8.9297 13.6456 8.92969 12.3486C8.92969 11.0689 9.23955 10.0109 9.84961 9.20996C10.4596 8.40493 11.2622 8.00009 12.2354 8ZM12.2354 9.40039C11.7026 9.40047 11.3117 9.59822 10.9629 10.0586C10.5523 10.5978 10.3301 11.3577 10.3301 12.3486C10.3301 13.3589 10.5455 14.1198 10.9346 14.6387C11.2652 15.0762 11.6436 15.2666 12.1729 15.2666C12.6869 15.2666 13.0635 15.0729 13.4033 14.6201C13.8095 14.0788 14.0293 13.3195 14.0293 12.3164C14.0361 11.3578 13.82 10.6123 13.4082 10.0576C13.063 9.5927 12.7015 9.40039 12.2354 9.40039Z" fill="var(--fill-0, #666666)"/>
</g>
</svg>
